<svg xmlns="http://www.w3.org/2000/svg" xml:space="preserve" width="64" height="64" style="clip-rule:evenodd;fill-rule:evenodd;stroke-linejoin:round;stroke-miterlimit:2" viewBox="0 0 64 64">
  <defs>
    <linearGradient id="a" x1="0" x2="1" y1="0" y2="0" gradientTransform="rotate(-90 248.937 -196.216)scale(41.6338)" gradientUnits="userSpaceOnUse">
      <stop offset="0" style="stop-color:#1075f6"/>
      <stop offset="1" style="stop-color:#12c5ff"/>
    </linearGradient>
  </defs>
  <g style="clip-rule:evenodd;display:inline;fill-rule:evenodd;stroke-linejoin:round;stroke-miterlimit:2">
    <path d="M61.122 15.88a5 5 0 0 0-5-5H7.878a5 5 0 0 0-5 5v32.246a5 5 0 0 0 5 5h48.244a5 5 0 0 0 5-5z" style="fill:#0083d5;fill-opacity:1"/>
    <path d="M61.122 20.652a5 5 0 0 0-5-5h-25.58a5 5 0 0 1-3.337-1.277l-2.481-2.224a5 5 0 0 0-3.337-1.277H7.878a5 5 0 0 0-5 5v32.252a5 5 0 0 0 5 5h48.244a5 5 0 0 0 5-5z" style="display:inline;fill:url(#a);fill-opacity:1"/>
  </g>
  <path fill="#6f5f34" d="M20 22.389v24h24v-24zm6 2h12v8H26Zm-4 2h2v2h-2zm18 0h2v2h-2Zm-18 7h2v2h-2zm18 0h2v2h-2Zm-14 3h12v8H26Zm-4 4h2v2h-2zm18 0h2v2h-2Z" color="#6f5f34" style="clip-rule:evenodd;fill-rule:evenodd;stroke-width:2;stroke-linejoin:round;stroke-miterlimit:2;fill:#000;fill-opacity:.5"/>
</svg>
